<?xml version="1.0" standalone="no"?>
<!DOCTYPE svg PUBLIC "-//W3C//DTD SVG 1.1//EN" "http://www.w3.org/Graphics/SVG/1.1/DTD/svg11.dtd" >
<svg xmlns="http://www.w3.org/2000/svg" xmlns:xlink="http://www.w3.org/1999/xlink" version="1.1">
<metadata>
Created by FontForge 20150824 at Mon Feb  8 13:46:45 2016
 By Everything Fonts
Copyright (c) 2015, Typopey
</metadata>
<defs>
<font id="AgharaStdRegular" horiz-adv-x="730" >
  <font-face 
    font-family="AgharaStdRegular"
    font-weight="700"
    font-stretch="normal"
    units-per-em="1000"
    panose-1="2 0 5 3 0 0 0 0 0 0"
    ascent="800"
    descent="-200"
    x-height="485"
    cap-height="660"
    bbox="-100 -200 1260 911"
    underline-thickness="80"
    underline-position="-255"
    unicode-range="U+0020-2122"
  />
<missing-glyph horiz-adv-x="364" 
d="M33 0v666h265v-666h-265zM66 33h199v600h-199v-600z" />
    <glyph glyph-name=".notdef" horiz-adv-x="364" 
d="M33 0v666h265v-666h-265zM66 33h199v600h-199v-600z" />
    <glyph glyph-name=".null" horiz-adv-x="0" 
 />
    <glyph glyph-name="nonmarkingreturn" horiz-adv-x="333" 
 />
    <glyph glyph-name="space" unicode=" " horiz-adv-x="300" 
 />
    <glyph glyph-name="exclam" unicode="!" horiz-adv-x="295" 
d="M50 110h195v-110h-195v110zM50 660h195l-20 -485h-155z" />
    <glyph glyph-name="quotedbl" unicode="&#x22;" horiz-adv-x="590" 
d="M30 450l50 250h195l-85 -250h-160zM315 450l50 250h195l-85 -250h-160z" />
    <glyph glyph-name="numbersign" unicode="#" horiz-adv-x="624" 
d="M524 515h70l-18 -100h-70l-28 -160h70l-18 -100h-70l-27 -155h-100l27 155h-160l-27 -155h-100l27 155h-70l18 100h70l28 160h-70l18 100h70l27 155h100l-27 -155h160l27 155h100zM406 415h-160l-28 -160h160z" />
    <glyph glyph-name="dollar" unicode="$" horiz-adv-x="830" 
d="M465 -40h-100v40h-355v160h345h10v95h-305v75q0 106 89.5 198t215.5 122v50h100v-40h355v-160h-345h-10v-85h305v-85q0 -106 -89.5 -198t-215.5 -122v-50zM365 467q-18 -11 -34.5 -24t-24.5 -21l-7 -7h66v52zM465 255v-61q20 12 39.5 27t28.5 25l9 9h-77z" />
    <glyph glyph-name="percent" unicode="%" horiz-adv-x="884" 
d="M148 485q0 -75 80 -75h2q80 0 80 75v20q0 75 -80 75h-2q-80 0 -80 -75v-20zM408 475q0 -62 -51 -103.5t-117 -41.5h-22q-67 0 -117.5 41.5t-50.5 103.5v40q0 62 50.5 103.5t117.5 41.5h22q66 0 117 -41.5t51 -103.5v-40zM574 155q0 -75 80 -75h2q80 0 80 75v20
q0 75 -80 75h-2q-80 0 -80 -75v-20zM834 145q0 -62 -50.5 -103.5t-117.5 -41.5h-22q-66 0 -117 41.5t-51 103.5v40q0 62 51 103.5t117 41.5h22q67 0 117.5 -41.5t50.5 -103.5v-40zM759 660l-484 -660h-146l483 660h147z" />
    <glyph glyph-name="ampersand" unicode="&#x26;" horiz-adv-x="870" 
d="M416 500h-36q-25 0 -40 -12.5t-15 -35.5q0 -20 16.5 -33.5t38.5 -13.5h36h134q22 0 38.5 13.5t16.5 33.5q0 23 -15 35.5t-40 12.5h-134zM625 208v12h195v-45q0 -91 -77 -140l90 -85h-226l-53 50h-218h-76q-96 0 -153 49t-57 126q0 69 44.5 114.5t103.5 46.5
q-68 48 -68 149q0 77 57 126t153 49h76h174q96 0 153 -49t57 -126q0 -75 -36.5 -129t-89.5 -77.5t-114 -23.5h-224h-36q-22 0 -38.5 -13.5t-16.5 -33.5q0 -23 15 -35.5t40 -12.5h36h234q25 0 40 12.5t15 35.5z" />
    <glyph glyph-name="quotesingle" unicode="'" horiz-adv-x="305" 
d="M30 450l50 250h195l-85 -250h-160z" />
    <glyph glyph-name="parenleft" unicode="(" horiz-adv-x="440" 
d="M210 485v-370q0 -77 48.5 -133.5t121.5 -56.5h50v-125h-35q-129 0 -237 102t-108 228v340q0 126 108 228t237 102h35v-125h-50q-73 0 -121.5 -56.5t-48.5 -133.5z" />
    <glyph glyph-name="parenright" unicode=")" horiz-adv-x="440" 
d="M230 485q0 77 -48.5 133.5t-121.5 56.5h-50v125h35q129 0 237 -102t108 -228v-340q0 -126 -108 -228t-237 -102h-35v125h50q73 0 121.5 56.5t48.5 133.5v370z" />
    <glyph glyph-name="asterisk" unicode="*" horiz-adv-x="403" 
d="M253 588l84 36l36 -107l-87 -24l60 -62l-86 -73l-57 78l-57 -78l-87 73l59 62l-88 26l38 105l84 -36l-5 82h112z" />
    <glyph glyph-name="plus" unicode="+" horiz-adv-x="463" 
d="M282 280v-131h-100v131h-132v100h132v132h100v-132h131v-100h-131z" />
    <glyph glyph-name="comma" unicode="," horiz-adv-x="305" 
d="M30 -100l50 250h195l-85 -250h-160z" />
    <glyph glyph-name="hyphen" unicode="-" horiz-adv-x="500" 
d="M450 265h-400v140h400v-140z" />
    <glyph glyph-name="period" unicode="." horiz-adv-x="295" 
d="M50 0v150h195v-150h-195z" />
    <glyph glyph-name="slash" unicode="/" horiz-adv-x="413" 
d="M403 700l-277 -760h-116l276 760h117z" />
    <glyph glyph-name="zero" unicode="0" horiz-adv-x="775" 
d="M225 310q0 -74 42 -112t118 -38h5q76 0 118 38t42 112v40q0 74 -42 112t-118 38h-5q-76 0 -118 -38t-42 -112v-40zM745 290q0 -124 -101.5 -207t-233.5 -83h-45q-132 0 -233.5 83t-101.5 207v80q0 124 101.5 207t233.5 83h45q132 0 233.5 -83t101.5 -207v-80z" />
    <glyph glyph-name="one" unicode="1" horiz-adv-x="375" 
d="M325 660v-660h-195v450l-100 -10v160l150 60h145z" />
    <glyph glyph-name="two" unicode="2" horiz-adv-x="850" 
d="M369 245q-44 0 -75 -21.5t-40 -42.5l-9 -21h575v-160h-770v160q0 109 78 177t222 68h242q-4 4 -10 10.5t-26.5 22.5t-41.5 28.5t-51 23t-58 10.5h-305v160h325q85 0 176.5 -46t155 -124.5t63.5 -159.5v-85h-451z" />
    <glyph glyph-name="three" unicode="3" horiz-adv-x="860" 
d="M50 160h530q25 0 40 12.5t15 35.5q0 20 -16.5 33.5t-38.5 13.5h-530v160h430q25 0 42.5 11t17.5 32t-17.5 31.5t-42.5 10.5h-430v160h450q119 0 177 -59t58 -143q0 -22 -5.5 -41t-13.5 -30t-16.5 -18.5t-13.5 -10.5l-6 -3q6 0 16 -2t36 -13t46 -28t36 -53t16 -84
q0 -77 -57 -126t-153 -49h-570v160z" />
    <glyph glyph-name="four" unicode="4" horiz-adv-x="910" 
d="M577 660l-307 -325h395v165h195v-500h-195v175h-615v140q0 56 40 97l242 248h245z" />
    <glyph glyph-name="five" unicode="5" horiz-adv-x="850" 
d="M245 415h555v-85q0 -81 -63.5 -159.5t-155 -124.5t-176.5 -46h-355v160h335q28 0 57.5 10t51.5 24t40.5 27.5t27.5 23.5l10 10h-522v405h750v-160h-555v-85z" />
    <glyph glyph-name="six" unicode="6" horiz-adv-x="840" 
d="M345 485h135q173 0 251.5 -60t78.5 -183q0 -242 -330 -242h-120q-330 0 -330 242q0 70 34 135l151 283h225zM326 325q-101 0 -101 -83q0 -82 101 -82h188q101 0 101 82q0 83 -101 83h-188z" />
    <glyph glyph-name="seven" unicode="7" horiz-adv-x="695" 
d="M165 0l280 500h-415v160h635v-96q0 -11 -2.5 -24.5t-8 -30t-10.5 -30.5t-15 -34.5t-16.5 -34t-19 -37t-18.5 -34.5t-19.5 -36t-18.5 -33l-147 -270h-225z" />
    <glyph glyph-name="eight" unicode="8" horiz-adv-x="870" 
d="M336 160h234q25 0 40 12.5t15 35.5q0 20 -16.5 33.5t-38.5 13.5h-234h-36q-22 0 -38.5 -13.5t-16.5 -33.5q0 -23 15 -35.5t40 -12.5h36zM336 0h-76q-96 0 -153 49t-57 126q0 116 88 161q-68 48 -68 149q0 77 57 126t153 49h76h234q96 0 153 -49t57 -126q0 -101 -68 -149
q88 -45 88 -161q0 -77 -57 -126t-153 -49h-274zM356 500h-36q-25 0 -40 -12.5t-15 -35.5q0 -20 16.5 -33.5t38.5 -13.5h36h194q22 0 38.5 13.5t16.5 33.5q0 23 -15 35.5t-40 12.5h-194z" />
    <glyph glyph-name="nine" unicode="9" horiz-adv-x="880" 
d="M515 175h-135q-173 0 -251.5 60t-78.5 183q0 242 330 242h120q330 0 330 -242q0 -70 -34 -135l-151 -283h-225zM534 335q101 0 101 83q0 82 -101 82h-188q-101 0 -101 -82q0 -83 101 -83h188z" />
    <glyph glyph-name="colon" unicode=":" horiz-adv-x="295" 
d="M50 335v150h195v-150h-195zM50 0v150h195v-150h-195z" />
    <glyph glyph-name="semicolon" unicode=";" horiz-adv-x="345" 
d="M100 335v150h195v-150h-195zM50 -100l50 250h195l-85 -250h-160z" />
    <glyph glyph-name="less" unicode="&#x3c;" horiz-adv-x="575" 
d="M525 0l-405 203q-51 25 -70.5 55.5t-19.5 71.5q0 40 19 68.5t71 54.5l405 207v-175l-360 -155l360 -155v-175z" />
    <glyph glyph-name="equal" unicode="=" horiz-adv-x="600" 
d="M50 515h500v-100h-500v100zM50 255h500v-100h-500v100z" />
    <glyph glyph-name="greater" unicode="&#x3e;" horiz-adv-x="575" 
d="M50 0v175l360 155l-360 155v175l405 -207q52 -26 71 -54.5t19 -68.5q0 -41 -19.5 -71.5t-70.5 -55.5z" />
    <glyph glyph-name="question" unicode="?" horiz-adv-x="580" 
d="M50 660h170q177 0 253.5 -45.5t76.5 -156.5q0 -97 -60.5 -150t-142.5 -53h-52q-20 0 -35 -13t-15 -32v-35h-195v105q0 53 36.5 94t93.5 41h114q25 0 43 11t18 32t-18 31.5t-43 10.5h-244v160zM50 110h195v-110h-195v110z" />
    <glyph glyph-name="at" unicode="@" horiz-adv-x="905" 
d="M476 295q-55 0 -55 -47q0 -20 16.5 -34t38.5 -14h164q15 0 29 -5t20 -10l6 -5v67q0 23 -15 35.5t-40 12.5h-164zM855 350v-252v-58h-384q-93 0 -151.5 60t-58.5 139q0 104 64.5 155.5t165.5 51.5h177q-2 4 -5.5 10t-16 21t-26.5 27t-37 21.5t-48 9.5h-145
q-81 0 -138 -39.5t-57 -110.5v-285q0 -74 42 -112t118 -38h305v-125h-275q-132 0 -233.5 83t-101.5 207v255q0 124 101.5 207t233.5 83h135q132 0 233.5 -83t101.5 -207v-20z" />
    <glyph glyph-name="A" unicode="A" horiz-adv-x="1000" 
d="M250 45l-25 -45h-225l340 580q24 39 39.5 55.5t43 25.5t77.5 9t77.5 -9t43 -25.5t39.5 -55.5l340 -580h-225l-53 95h-322q-50 0 -93 -12.5t-57 -37.5zM635 255l-135 245l-149 -270q33 25 85 25h199z" />
    <glyph glyph-name="B" unicode="B" horiz-adv-x="890" 
d="M50 0v660h480q119 0 177 -59t58 -143q0 -22 -5.5 -41t-13.5 -30t-16.5 -18.5t-13.5 -10.5l-6 -3q6 0 16 -2t36 -13t46 -28t36 -53t16 -84q0 -77 -57 -126t-153 -49h-600zM245 390q25 25 85 25h180q25 0 42.5 11t17.5 32t-17.5 31.5t-42.5 10.5h-265v-110zM245 255v-120
q19 25 85 25h280q25 0 40 12.5t15 35.5q0 20 -16.5 33.5t-38.5 13.5h-365z" />
    <glyph glyph-name="C" unicode="C" horiz-adv-x="850" 
d="M800 160v-160h-750v330q0 81 63.5 159.5t155 124.5t176.5 46h355v-160h-335q-78 0 -149 -58.5t-71 -131.5v-150h555z" />
    <glyph glyph-name="D" unicode="D" horiz-adv-x="835" 
d="M50 0v660h410q129 0 237 -102t108 -228q0 -105 -49 -182t-123.5 -112.5t-162.5 -35.5h-420zM245 160h205q76 0 118 38t42 112q0 77 -48.5 133.5t-121.5 56.5h-195v-340z" />
    <glyph glyph-name="E" unicode="E" horiz-adv-x="800" 
d="M50 0v330q0 81 63.5 159.5t155 124.5t176.5 46h255v-160h-235q-28 0 -56.5 -9t-49 -21t-36.5 -24.5t-25 -21.5l-8 -9h260v-160h-305v-95h505v-160h-700z" />
    <glyph glyph-name="F" unicode="F" horiz-adv-x="710" 
d="M290 415h210v-160h-255v-255h-195v330q0 81 63.5 159.5t155 124.5t176.5 46h255v-160h-235q-28 0 -56.5 -9t-49 -21t-36.5 -24.5t-25 -21.5z" />
    <glyph glyph-name="G" unicode="G" horiz-adv-x="855" 
d="M690 -50h-215l48 50h-473v330q0 81 63.5 159.5t155 124.5t176.5 46h360v-160h-340q-78 0 -149 -58.5t-71 -131.5v-150h365v175h195v-200z" />
    <glyph glyph-name="H" unicode="H" horiz-adv-x="855" 
d="M330 415h280v245h195v-660h-195v255h-280q-27 0 -48 -12.5t-29 -24.5l-8 -13v-205h-195v660h195v-270q25 25 85 25z" />
    <glyph glyph-name="I" unicode="I" horiz-adv-x="295" 
d="M245 660v-660h-195v660h195z" />
    <glyph glyph-name="J" unicode="J" horiz-adv-x="510" 
d="M10 0v160h95q76 0 118 38t42 112v350h195v-370q0 -124 -101.5 -207t-233.5 -83h-115z" />
    <glyph glyph-name="K" unicode="K" horiz-adv-x="810" 
d="M245 660v-350q133 84 135 85l170 265h230l-243 -358l243 -302h-230l-170 215l-135 -110v-105h-195v660h195z" />
    <glyph glyph-name="L" unicode="L" horiz-adv-x="660" 
d="M650 160v-160h-265q-132 0 -233.5 83t-101.5 207v370h195v-350q0 -74 42 -112t118 -38h245z" />
    <glyph glyph-name="M" unicode="M" horiz-adv-x="1040" 
d="M652 160h-174q-24 88 -110 198q-35 44 -65.5 73.5t-44.5 36.5l-13 7v-475h-195v660h150q44 0 93 -25t88 -61t71.5 -72.5t49.5 -61.5l18 -25q6 10 17 26.5t46 58.5t71 74.5t87 59t99 26.5h150v-660h-195v477q-49 -31 -97 -87q-30 -36 -50 -68t-25 -46l-5 -15
q12 -27 20.5 -52.5t11.5 -36.5z" />
    <glyph glyph-name="N" unicode="N" horiz-adv-x="850" 
d="M245 500v-500h-195v660h195q93 -24 188 -88q46 -31 89 -69t63 -61l20 -22v240h195v-660h-195v160q-60 96 -174 204q-50 47 -96.5 81t-68.5 45z" />
    <glyph glyph-name="O" unicode="O" horiz-adv-x="865" 
d="M225 310q0 -74 42 -112t118 -38h95q76 0 118 38t42 112v40q0 74 -42 112t-118 38h-95q-76 0 -118 -38t-42 -112v-40zM835 290q0 -124 -101.5 -207t-233.5 -83h-135q-132 0 -233.5 83t-101.5 207v80q0 124 101.5 207t233.5 83h135q132 0 233.5 -83t101.5 -207v-80z" />
    <glyph glyph-name="P" unicode="P" horiz-adv-x="810" 
d="M450 175h-150q-23 0 -39 -12.5t-16 -34.5v-128h-195v660h400q330 0 330 -242q0 -123 -78.5 -183t-251.5 -60zM245 315q25 20 55 20h184q101 0 101 83q0 82 -101 82h-239v-185z" />
    <glyph glyph-name="Q" unicode="Q" horiz-adv-x="865" 
d="M225 310q0 -74 42 -112t118 -38h95q76 0 118 38t42 112v40q0 74 -42 112t-118 38h-95q-76 0 -118 -38t-42 -112v-40zM500 0h-135q-132 0 -233.5 83t-101.5 207v80q0 124 101.5 207t233.5 83h135q132 0 233.5 -83t101.5 -207v-80q0 -67 -32 -123.5t-87 -97.5
q18 -12 33 -40l69 -129h-214l-34 66q-10 20 -25 27t-45 7z" />
    <glyph glyph-name="R" unicode="R" horiz-adv-x="815" 
d="M245 315q25 20 55 20h184q101 0 101 83q0 82 -101 82h-239v-185zM245 0h-195v660h400q330 0 330 -242q0 -56 -15.5 -99.5t-37 -66t-43.5 -36.5t-38 -18l-15 -3q28 -45 61 -90q14 -19 37 -45t39 -43l17 -17h-235q-37 39 -74 91q-10 14 -30 48.5t-21 35.5h-125
q-23 0 -39 -12.5t-16 -34.5v-128z" />
    <glyph glyph-name="S" unicode="S" horiz-adv-x="830" 
d="M299 415h471v-85q0 -83 -56.5 -160t-148 -123.5t-190.5 -46.5h-365v160h345q28 0 57.5 10t51.5 24t40.5 27.5t27.5 23.5l10 10h-482v75q0 83 56.5 160t148 123.5t190.5 46.5h365v-160h-345q-44 0 -88 -21t-66 -43z" />
    <glyph glyph-name="T" unicode="T" horiz-adv-x="810" 
d="M475 385v-385h-195v385q0 31 6 60t12 42l7 13h-295v160h790v-160h-250q-75 0 -75 -115z" />
    <glyph glyph-name="U" unicode="U" horiz-adv-x="855" 
d="M50 290v370h195v-350q0 -74 42 -112t118 -38h45q76 0 118 38t42 112v350h195v-370q0 -124 -101.5 -207t-233.5 -83h-85q-133 0 -234 82.5t-101 207.5z" />
    <glyph glyph-name="V" unicode="V" horiz-adv-x="1000" 
d="M225 660l275 -500l275 500h225l-340 -580q-24 -39 -39.5 -55.5t-43 -25.5t-77.5 -9t-77.5 9t-43 25.5t-39.5 55.5l-340 580h225z" />
    <glyph glyph-name="W" unicode="W" horiz-adv-x="1250" 
d="M518 496l-68 164h225l175 -501l175 501h225l-240 -581q-37 -90 -160 -90t-160 90l-65 157l-65 -157q-37 -90 -160 -90t-160 90l-240 581h225l175 -501z" />
    <glyph glyph-name="X" unicode="X" horiz-adv-x="830" 
d="M780 0h-225l-119 255h-36l-175 -255h-225l235 335l-185 325h225l125 -245h36l169 245h225l-235 -325z" />
    <glyph glyph-name="Y" unicode="Y" horiz-adv-x="810" 
d="M503 160v-160h-195v160q0 80 -49 161.5t-113.5 130t-115.5 48.5h-20v160h90q41 0 87 -26t83.5 -62.5t68.5 -73t49 -62.5l17 -26q5 10 15.5 27t43 60t66 76t83 60t97.5 27h90v-160h-20q-37 0 -85.5 -29.5t-90.5 -76t-71.5 -110t-29.5 -124.5z" />
    <glyph glyph-name="Z" unicode="Z" horiz-adv-x="775" 
d="M506 288l-202 -128h461v-160h-705v160q0 20 12 39t39 39.5t50 35.5t67 41t68 41l228 144h-514v160h705v-160q0 -56 -42.5 -102.5t-166.5 -109.5z" />
    <glyph glyph-name="bracketleft" unicode="[" horiz-adv-x="440" 
d="M170 -100h220v-100h-340v1000h340v-100h-220v-800z" />
    <glyph glyph-name="backslash" unicode="\" horiz-adv-x="413" 
d="M10 700h117l276 -760h-116z" />
    <glyph glyph-name="bracketright" unicode="]" horiz-adv-x="440" 
d="M270 -100v800h-220v100h340v-1000h-340v100h220z" />
    <glyph glyph-name="asciicircum" unicode="^" horiz-adv-x="490" 
d="M245 680q45 0 75 -30l140 -125h-155l-60 65l-60 -65h-155l140 125q30 30 75 30z" />
    <glyph glyph-name="underscore" unicode="_" 
d="M0 -15h730v-120h-730v120z" />
    <glyph glyph-name="grave" unicode="`" horiz-adv-x="405" 
d="M375 525h-160l-185 145h195z" />
    <glyph glyph-name="a" unicode="a" 
d="M680 485v-485h-320q-330 0 -330 242q0 123 78.5 183t251.5 60h320zM485 140v185h-159q-101 0 -101 -82q0 -83 101 -83h104q13 0 27 -5t21 -10z" />
    <glyph glyph-name="b" unicode="b" 
d="M370 485q173 0 251.5 -60t78.5 -183q0 -242 -330 -242h-320v660h195v-128q0 -22 16 -34.5t39 -12.5h70zM245 345v-185h159q101 0 101 82q0 83 -101 83h-104q-13 0 -27 5t-21 10z" />
    <glyph glyph-name="c" unicode="c" horiz-adv-x="740" 
d="M690 160v-160h-640v155q0 81 63.5 159.5t155 124.5t176.5 46h245v-160h-225q-84 0 -152 -55.5t-68 -99.5v-10h445z" />
    <glyph glyph-name="d" unicode="d" 
d="M360 485h70q23 0 39 12.5t16 34.5v128h195v-660h-320q-330 0 -330 242q0 123 78.5 183t251.5 60zM485 345q-25 -20 -55 -20h-104q-101 0 -101 -83q0 -82 101 -82h159v185z" />
    <glyph glyph-name="e" unicode="e" horiz-adv-x="690" 
d="M355 194l30 131h-59q-101 0 -101 -83q0 -82 101 -82h354v-160h-320q-173 0 -251.5 60t-78.5 183q0 242 330 242h240l-70 -290z" />
    <glyph glyph-name="f" unicode="f" horiz-adv-x="550" 
d="M290 415h180v-160h-225v-255h-195v330q0 81 63.5 159.5t155 124.5t176.5 46h95v-160h-75q-28 0 -56.5 -9t-49 -21t-36.5 -24.5t-25 -21.5z" />
    <glyph glyph-name="g" unicode="g" 
d="M158 -175q2 4 6.5 10.5t20 25t32 36.5t43 40.5t54.5 39.5q31 20 74 38t70 27l27 8v30h-225q-102 0 -166 51t-64 155q0 79 58.5 139t151.5 60h230q96 0 153 -49t57 -126v-370q-85 -9 -154 -29q-42 -12 -77.5 -33.5t-50.5 -37.5l-15 -15h-225zM280 325q-25 0 -40 -12.5
t-15 -35.5q0 -20 16.5 -33.5t38.5 -13.5h150q15 0 29 -5t20 -10l6 -5v67q0 23 -15 35.5t-40 12.5h-150z" />
    <glyph glyph-name="h" unicode="h" 
d="M50 0v660h195v-175h160q128 0 211.5 -81.5t83.5 -208.5v-195h-195v175q0 73 -33 111.5t-87 38.5h-140v-325h-195z" />
    <glyph glyph-name="i" unicode="i" horiz-adv-x="295" 
d="M50 550v110h195v-110h-195zM50 0v485h195v-485h-195z" />
    <glyph glyph-name="j" unicode="j" horiz-adv-x="440" 
d="M195 550v110h195v-110h-195zM10 -15h25q76 0 118 38t42 112v350h195v-370q0 -124 -101.5 -207t-233.5 -83h-45v160z" />
    <glyph glyph-name="k" unicode="k" horiz-adv-x="732" 
d="M245 0h-195v660h195v-325h25l150 150h230l-201 -189q94 -42 154.5 -116t98.5 -180h-195q-31 79 -89 127t-143 48h-30v-175z" />
    <glyph glyph-name="l" unicode="l" horiz-adv-x="353" 
d="M343 0h-28q-137 0 -201 44.5t-64 165.5v450h195v-430q0 -70 90 -70h8v-160z" />
    <glyph glyph-name="m" unicode="m" horiz-adv-x="1005" 
d="M502 416q82 69 198 69h255v-485h-195v325h-40q-54 0 -87 -38.5t-33 -111.5v-175h-195v175q0 73 -33 111.5t-87 38.5h-40v-325h-195v485h255q117 0 197 -69z" />
    <glyph glyph-name="n" unicode="n" 
d="M50 0v485h355q128 0 211.5 -81.5t83.5 -208.5v-195h-195v175q0 73 -33 111.5t-87 38.5h-140v-325h-195z" />
    <glyph glyph-name="o" unicode="o" horiz-adv-x="710" 
d="M326 0q-132 0 -214 63.5t-82 179.5q0 111 83 176.5t213 65.5h58q130 0 213 -65.5t83 -176.5q0 -116 -82 -179.5t-214 -63.5h-58zM326 325q-101 0 -101 -82q0 -83 101 -83h58q101 0 101 83q0 82 -101 82h-58z" />
    <glyph glyph-name="p" unicode="p" 
d="M370 0h-70q-23 0 -39 -12.5t-16 -34.5v-128h-195v660h320q330 0 330 -242q0 -123 -78.5 -183t-251.5 -60zM245 140q25 20 55 20h104q101 0 101 83q0 82 -101 82h-159v-185z" />
    <glyph glyph-name="q" unicode="q" 
d="M360 0q-173 0 -251.5 60t-78.5 183q0 242 330 242h320v-660h-195v128q0 22 -16 34.5t-39 12.5h-70zM485 140v185h-159q-101 0 -101 -82q0 -83 101 -83h104q13 0 27 -5t21 -10z" />
    <glyph glyph-name="r" unicode="r" horiz-adv-x="453" 
d="M443 485v-160h-108q-90 0 -90 -70v-255h-195v275q0 121 64 165.5t201 44.5h128z" />
    <glyph glyph-name="s" unicode="s" horiz-adv-x="620" 
d="M364 0h-354v160h186q29 0 29 27q0 18 -14 43l-50 95q-18 35 -18 65q0 42 30 68.5t83 26.5h354v-160h-186q-29 0 -29 -27q0 -18 14 -43l50 -94q18 -35 18 -66q0 -42 -30 -68.5t-83 -26.5z" />
    <glyph glyph-name="t" unicode="t" horiz-adv-x="630" 
d="M620 0h-225q-137 0 -201 44.5t-64 165.5v115h-120v160h120v175h195v-175h205v-160h-205v-95q0 -70 90 -70h205v-160z" />
    <glyph glyph-name="u" unicode="u" horiz-adv-x="710" 
d="M30 290v195h195v-175q0 -73 33 -111.5t87 -38.5h20q54 0 87 38.5t33 111.5v175h195v-195q0 -127 -83.5 -208.5t-211.5 -81.5h-60q-128 0 -211.5 81.5t-83.5 208.5z" />
    <glyph glyph-name="v" unicode="v" horiz-adv-x="790" 
d="M790 485l-233 -405q-22 -38 -38.5 -55.5t-45 -26t-78.5 -8.5q-38 0 -61 3.5t-40.5 16t-28 26.5t-28.5 44l-237 405h220l175 -325l175 325h220z" />
    <glyph glyph-name="w" unicode="w" horiz-adv-x="1135" 
d="M0 485h220l145 -325l115 177l-55 148h200l145 -325l145 325h220l-207 -405q-26 -51 -63.5 -70.5t-94.5 -19.5q-56 0 -94.5 20t-67.5 70l-42 73l-43 -73q-30 -51 -66.5 -70.5t-91.5 -19.5q-57 0 -97 19.5t-65 70.5z" />
    <glyph glyph-name="x" unicode="x" horiz-adv-x="700" 
d="M70 415v70h195v-103q0 -20 16.5 -33.5t38.5 -13.5l60 1q22 0 38.5 13.5t16.5 33.5v103h195v-70q0 -101 -68 -149q88 -45 88 -161v-105h-195v138q0 20 -16.5 33.5t-38.5 13.5l-100 -1q-22 0 -38.5 -13.5t-16.5 -33.5v-140h-195v107q0 116 88 161q-28 20 -48 61.5t-20 87.5
z" />
    <glyph glyph-name="y" unicode="y" horiz-adv-x="700" 
d="M251 33l12 23q-14 88 -79.5 178.5t-116.5 90.5h-22v160h74q40 0 80.5 -24.5t70 -59t53.5 -69.5t36 -60l12 -24q4 10 11.5 26t32.5 56.5t53.5 72t73.5 57t93 25.5h55v-160h-10q-43 0 -77.5 -38.5t-77.5 -118.5l-73 -132q-65 -121 -146 -165.5t-214 -44.5h-82v160h127
q79 0 114 47z" />
    <glyph glyph-name="z" unicode="z" horiz-adv-x="620" 
d="M472 216l-120 -56h258v-160h-550v72q0 56 35 106.5t105 81.5l151 65h-341v160h550v-74q0 -36 -2 -57t-9.5 -52.5t-26.5 -52.5t-50 -33z" />
    <glyph glyph-name="braceleft" unicode="{" horiz-adv-x="510" 
d="M250 170v-200q0 -70 90 -70h120v-100h-65q-137 0 -201 44.5t-64 165.5v140q0 37 -12 53.5t-48 16.5h-10q-30 0 -30 35v90q0 35 30 35h10q36 0 48 16.5t12 53.5v140q0 110 67 160t198 50h65v-100h-120q-90 0 -90 -70v-200q0 -25 -16 -57.5t-32 -52.5l-17 -20q7 -8 18 -22
t29 -48.5t18 -59.5z" />
    <glyph glyph-name="bar" unicode="|" horiz-adv-x="220" 
d="M170 800v-1000h-120v1000h120z" />
    <glyph glyph-name="braceright" unicode="}" horiz-adv-x="510" 
d="M240 170q0 25 16 57.5t32 52.5l17 20q-7 8 -18 22t-29 48.5t-18 59.5v200q0 70 -90 70h-120v100h65q131 0 198 -50t67 -160v-140q0 -37 12 -53.5t48 -16.5h10q30 0 30 -35v-90q0 -35 -30 -35h-10q-36 0 -48 -16.5t-12 -53.5v-140q0 -121 -64 -165.5t-201 -44.5h-65v100
h120q90 0 90 70v200z" />
    <glyph glyph-name="asciitilde" unicode="~" horiz-adv-x="478" 
d="M324 333q-6 0 -14 3l-139 49h-11q-2 0 -14 -2l-96 -37v105l85 33q14 4 20 4q7 0 13 -3l140 -48q4 -1 11 -1q8 0 13 2l96 37v-105l-84 -33q-16 -4 -20 -4z" />
    <glyph glyph-name="exclamdown" unicode="&#xa1;" horiz-adv-x="295" 
d="M50 375v110h195v-110h-195zM50 -175l20 485h155l20 -485h-195z" />
    <glyph glyph-name="cent" unicode="&#xa2;" horiz-adv-x="740" 
d="M690 250v-160h-180v-90h-100v90h-360v155q0 76 56 150t138.5 121t165.5 57v87h100v-85h180v-160h-180v-165h180zM410 408q-67 -17 -116 -65t-49 -83v-10h165v158z" />
    <glyph glyph-name="sterling" unicode="&#xa3;" horiz-adv-x="810" 
d="M385 385h165v-100h-211q0 -26 -6 -57t-12 -50l-6 -18h485v-160h-750v160h20q25 0 42 22t23.5 48t8.5 55h-94v100h114q25 99 140 187t236 88h110v-160h-90q-35 0 -65.5 -12t-50 -29t-33.5 -33.5t-20 -28.5z" />
    <glyph glyph-name="currency" unicode="&#xa4;" horiz-adv-x="498" 
d="M168 320q0 -75 80 -75h2q80 0 80 75v20q0 75 -80 75h-2q-80 0 -80 -75v-20zM330 481l47 48l71 -71l-40 -40q20 -33 20 -68v-40q0 -35 -20 -68l40 -40l-71 -71l-47 48q-34 -14 -70 -14h-22q-34 0 -70 13l-47 -47l-71 71l40 40q-20 31 -20 68v40q0 37 20 68l-40 40l71 71
l47 -47q36 13 70 13h22q36 0 70 -14z" />
    <glyph glyph-name="yen" unicode="&#xa5;" horiz-adv-x="830" 
d="M513 115v-115h-195v115h-153v100h147q-3 15 -29 80h-118v100h50q-42 47 -90 76t-85 29h-30v160h100q41 0 87 -26t83.5 -62.5t68.5 -73t49 -62.5l17 -26q5 10 15.5 27t43 60t66 76t83 60t97.5 27h100v-160h-30q-37 0 -84.5 -28.5t-90.5 -76.5h50v-100h-117
q-26 -65 -29 -80h146v-100h-152z" />
    <glyph glyph-name="brokenbar" unicode="&#xa6;" horiz-adv-x="220" 
d="M50 255h120v-455h-120v455zM50 415v385h120v-385h-120z" />
    <glyph glyph-name="section" unicode="&#xa7;" horiz-adv-x="933" 
d="M402 415h53h315h103v-45q0 -106 -103 -202v-13q0 -83 -56.5 -160t-148 -123.5t-190.5 -46.5h-365v160h345q28 0 57.5 10t51.5 23.5t40.5 27.5t27.5 24l10 10h-64h-315h-103v35q0 106 103 206v9q0 83 56.5 160t148 123.5t190.5 46.5h365v-160h-345q-44 0 -88 -21t-66 -43z
M458 200q44 0 91 24t71 48l25 23h-170q-44 0 -88 -23.5t-66 -47.5l-22 -24h159z" />
    <glyph glyph-name="dieresis" unicode="&#xa8;" horiz-adv-x="450" 
d="M50 525v120h120v-120h-120zM280 525v120h120v-120h-120z" />
    <glyph glyph-name="copyright" unicode="&#xa9;" horiz-adv-x="720" 
d="M110 303q0 -103 69 -163t177 -60h8q108 0 177 60t69 163v54q0 103 -69 163t-177 60h-8q-108 0 -177 -60t-69 -163v-54zM690 290q0 -126 -89 -208t-218 -82h-45q-129 0 -218.5 82t-89.5 208v80q0 126 89.5 208t218.5 82h45q129 0 218 -82t89 -208v-80zM490 244v-80h-134
q-67 0 -117.5 41.5t-50.5 103.5v40q0 62 50.5 103.5t117.5 41.5h134v-80h-124q-80 0 -80 -75v-20q0 -75 80 -75h124z" />
    <glyph glyph-name="ordfeminine" unicode="&#xaa;" horiz-adv-x="405" 
d="M355 475v-243h-160q-165 0 -165 122q0 61 39.5 91t125.5 30h160zM258 302v93h-80q-50 0 -50 -41q0 -42 50 -42h52q7 0 14 -2.5t10 -5.5z" />
    <glyph glyph-name="guillemotleft" unicode="&#xab;" horiz-adv-x="455" 
d="M50 334q0 45 30 75l125 140v-155l-65 -60l65 -60v-155l-125 140q-30 30 -30 75zM250 334q0 45 30 75l125 140v-155l-65 -60l65 -60v-155l-125 140q-30 30 -30 75z" />
    <glyph glyph-name="logicalnot" unicode="&#xac;" horiz-adv-x="650" 
d="M30 295v120h570v-415h-120v295h-450z" />
    <glyph glyph-name="uni00AD" unicode="&#xad;" horiz-adv-x="600" 
d="M50 395h500v-120h-500v120z" />
    <glyph glyph-name="registered" unicode="&#xae;" horiz-adv-x="720" 
d="M309 323q12 9 25 9h48q45 0 45 38q0 36 -45 36h-73v-83zM309 182h-87v296h145q148 0 148 -108q0 -40 -16.5 -65t-33.5 -31l-17 -5q1 -1 10.5 -16t16.5 -24l42 -47h-105q-17 17 -34 40q-3 5 -11.5 19t-11.5 19h-21q-25 0 -25 -21v-57zM110 303q0 -103 69 -163t177 -60h8
q108 0 177 60t69 163v54q0 103 -69 163t-177 60h-8q-108 0 -177 -60t-69 -163v-54zM690 290q0 -126 -89 -208t-218 -82h-45q-129 0 -218.5 82t-89.5 208v80q0 126 89.5 208t218.5 82h45q129 0 218 -82t89 -208v-80z" />
    <glyph glyph-name="macron" unicode="&#xaf;" horiz-adv-x="500" 
d="M50 660h400v-110h-400v110z" />
    <glyph glyph-name="degree" unicode="&#xb0;" horiz-adv-x="288" 
d="M92 558q0 -48 52 -48h1q51 0 51 48v13q0 48 -51 48h-1q-52 0 -52 -48v-13zM259 552q0 -40 -32.5 -66.5t-74.5 -26.5h-15q-42 0 -74.5 26.5t-32.5 66.5v25q0 40 32.5 66.5t74.5 26.5h15q42 0 74.5 -26.5t32.5 -66.5v-25z" />
    <glyph glyph-name="plusminus" unicode="&#xb1;" horiz-adv-x="463" 
d="M413 0h-363v100h363v-100zM282 280v-131h-100v131h-132v100h132v132h100v-132h131v-100h-131z" />
    <glyph glyph-name="uni00B2" unicode="&#xb2;" horiz-adv-x="445" 
d="M190 452q-23 0 -38.5 -10.5t-19.5 -20.5l-4 -11h287v-80h-385v80q0 55 39 88.5t111 33.5h121q-5 6 -13.5 14t-33 21t-46.5 13h-153v80h163q66 0 131.5 -51.5t65.5 -113.5v-43h-225z" />
    <glyph glyph-name="uni00B3" unicode="&#xb3;" horiz-adv-x="450" 
d="M30 410h265q27 0 27 24q0 10 -8 17t-19 7h-265v80h215q12 0 21 5t9 16q0 21 -30 21h-215v80h225q59 0 88 -29.5t29 -71.5q0 -18 -6.5 -31t-13.5 -17l-7 -3q3 -1 8 -1.5t18 -6t23 -14.5t18 -27t8 -41q0 -39 -28.5 -63.5t-76.5 -24.5h-285v80z" />
    <glyph glyph-name="acute" unicode="&#xb4;" horiz-adv-x="405" 
d="M30 525l150 145h195l-185 -145h-160z" />
    <glyph glyph-name="mu" unicode="&#xb5;" horiz-adv-x="750" 
d="M50 -175v660h195v-175q0 -73 33 -111.5t87 -38.5h20q54 0 87 38.5t33 111.5v175h195v-195q0 -127 -83.5 -208.5t-211.5 -81.5h-60q-16 0 -41 3.5t-42 7.5l-17 4v-190h-195z" />
    <glyph glyph-name="paragraph" unicode="&#xb6;" horiz-adv-x="860" 
d="M323 335v165q-98 -1 -98 -82q0 -82 98 -83zM518 500v-675h-195v351q-153 6 -223 66t-70 176q0 228 293 241v1h37h158h292v-835h-195v675h-97z" />
    <glyph glyph-name="periodcentered" unicode="&#xb7;" horiz-adv-x="295" 
d="M50 335v150h195v-150h-195z" />
    <glyph glyph-name="cedilla" unicode="&#xb8;" horiz-adv-x="355" 
d="M127 -128h67q20 0 20 17q0 16 -20 16h-164l43 95h98l-9 -25h55q108 0 108 -86q0 -42 -32 -65.5t-76 -23.5h-120z" />
    <glyph glyph-name="uni00B9" unicode="&#xb9;" horiz-adv-x="207" 
d="M178 660v-330h-98v225l-50 -5v80l75 30h73z" />
    <glyph glyph-name="ordmasculine" unicode="&#xba;" horiz-adv-x="417" 
d="M128 495q0 -37 20.5 -56t59.5 -19h2q80 0 80 75v20q0 75 -80 75h-2q-39 0 -59.5 -19t-20.5 -56v-20zM388 485q0 -62 -51 -103.5t-117 -41.5h-22q-67 0 -117.5 41.5t-50.5 103.5v40q0 62 50.5 103.5t117.5 41.5h22q66 0 117 -41.5t51 -103.5v-40z" />
    <glyph glyph-name="guillemotright" unicode="&#xbb;" horiz-adv-x="455" 
d="M405 334q0 -45 -30 -75l-125 -140v155l65 60l-65 60v155l125 -140q30 -30 30 -75zM205 334q0 -45 -30 -75l-125 -140v155l65 60l-65 60v155l125 -140q30 -30 30 -75z" />
    <glyph glyph-name="onequarter" unicode="&#xbc;" horiz-adv-x="753" 
d="M224 660v-330h-98v225l-50 -5v80l76 30h72zM582 330l-154 -162h198v82h97v-250h-97v88h-308v70q0 27 20 48l121 124h123zM640 660l-484 -660h-146l483 660h147z" />
    <glyph glyph-name="onehalf" unicode="&#xbd;" horiz-adv-x="815" 
d="M224 660v-330h-98v225l-50 -5v80l76 30h72zM560 122q-23 0 -38.5 -10.5t-19.5 -20.5l-4 -11h287v-80h-385v80q0 55 39 88.5t111 33.5h121q-5 6 -13.5 14t-33 21t-46.5 13h-153v80h163q66 0 131.5 -51.5t65.5 -113.5v-43h-225zM640 660l-484 -660h-146l483 660h147z" />
    <glyph glyph-name="threequarters" unicode="&#xbe;" horiz-adv-x="908" 
d="M736 330l-153 -162h197v82h98v-250h-98v88h-307v70q0 27 20 48l121 124h122zM30 410h265q27 0 27 24q0 10 -8 17t-19 7h-265v80h215q12 0 21 5t9 16q0 21 -30 21h-215v80h225q59 0 88 -29.5t29 -71.5q0 -18 -6.5 -31t-13.5 -17l-7 -3q3 -1 8 -1.5t18 -6t23 -14.5t18 -27
t8 -41q0 -39 -28.5 -63.5t-76.5 -24.5h-285v80zM795 660l-484 -660h-146l483 660h147z" />
    <glyph glyph-name="questiondown" unicode="&#xbf;" horiz-adv-x="580" 
d="M530 -175h-170q-177 0 -253.5 45.5t-76.5 156.5q0 97 60.5 150t142.5 53h52q20 0 35 13t15 32v35h195v-105q0 -53 -36.5 -94t-93.5 -41h-114q-25 0 -43 -11t-18 -32t18 -31.5t43 -10.5h244v-160zM530 375h-195v110h195v-110z" />
    <glyph glyph-name="Agrave" unicode="&#xc0;" horiz-adv-x="1000" 
d="M250 45l-25 -45h-225l340 580q24 39 39.5 55.5t43 25.5t77.5 9t77.5 -9t43 -25.5t39.5 -55.5l340 -580h-225l-53 95h-322q-50 0 -93 -12.5t-57 -37.5zM635 255l-135 245l-149 -270q33 25 85 25h199zM580 700h-160l-185 145h195z" />
    <glyph glyph-name="Aacute" unicode="&#xc1;" horiz-adv-x="1000" 
d="M410 700l150 145h195l-185 -145h-160zM250 45l-25 -45h-225l340 580q24 39 39.5 55.5t43 25.5t77.5 9t77.5 -9t43 -25.5t39.5 -55.5l340 -580h-225l-53 95h-322q-50 0 -93 -12.5t-57 -37.5zM635 255l-135 245l-149 -270q33 25 85 25h199z" />
    <glyph glyph-name="Acircumflex" unicode="&#xc2;" horiz-adv-x="1000" 
d="M500 855q45 0 75 -30l140 -125h-155l-60 65l-60 -65h-155l140 125q30 30 75 30zM250 45l-25 -45h-225l340 580q24 39 39.5 55.5t43 25.5t77.5 9t77.5 -9t43 -25.5t39.5 -55.5l340 -580h-225l-53 95h-322q-50 0 -93 -12.5t-57 -37.5zM635 255l-135 245l-149 -270
q33 25 85 25h199z" />
    <glyph glyph-name="Atilde" unicode="&#xc3;" horiz-adv-x="1000" 
d="M585 697q-7 0 -14 3l-139 49h-11q-2 0 -14 -2l-96 -37v105l85 33q14 4 20 4q7 0 13 -3l140 -48q4 -1 11 -1q8 0 13 2l96 37v-105l-84 -33q-16 -4 -20 -4zM250 45l-25 -45h-225l340 580q24 39 39.5 55.5t43 25.5t77.5 9t77.5 -9t43 -25.5t39.5 -55.5l340 -580h-225l-53 95
h-322q-50 0 -93 -12.5t-57 -37.5zM635 255l-135 245l-149 -270q33 25 85 25h199z" />
    <glyph glyph-name="Adieresis" unicode="&#xc4;" horiz-adv-x="1000" 
d="M325 700v120h120v-120h-120zM555 700v120h120v-120h-120zM250 45l-25 -45h-225l340 580q24 39 39.5 55.5t43 25.5t77.5 9t77.5 -9t43 -25.5t39.5 -55.5l340 -580h-225l-53 95h-322q-50 0 -93 -12.5t-57 -37.5zM635 255l-135 245l-149 -270q33 25 85 25h199z" />
    <glyph glyph-name="Aring" unicode="&#xc5;" horiz-adv-x="1000" 
d="M448 799q0 -48 51 -48h2q51 0 51 48v13q0 48 -51 48h-2q-51 0 -51 -48v-13zM614 793q0 -40 -32.5 -66.5t-74.5 -26.5h-14q-42 0 -74.5 26.5t-32.5 66.5v25q0 40 32.5 66.5t74.5 26.5h14q42 0 74.5 -26.5t32.5 -66.5v-25zM250 45l-25 -45h-225l340 580q24 39 39.5 55.5
t43 25.5t77.5 9t77.5 -9t43 -25.5t39.5 -55.5l340 -580h-225l-53 95h-322q-50 0 -93 -12.5t-57 -37.5zM635 255l-135 245l-149 -270q33 25 85 25h199z" />
    <glyph glyph-name="AE" unicode="&#xc6;" horiz-adv-x="1270" 
d="M1210 670v-170h-450v-85h300v-160h-300v-95h500v-160h-695v95h-165q-50 0 -93 -12.5t-57 -37.5l-25 -45h-225l340 580q24 39 39.5 55.5t43 25.5t77.5 9h710zM500 500l-149 -270q33 25 85 25h129v245h-65z" />
    <glyph glyph-name="Ccedilla" unicode="&#xc7;" horiz-adv-x="850" 
d="M430 -126h67q20 0 20 17q0 16 -20 16h-164l42 93h-325v330q0 81 63.5 159.5t155 124.5t176.5 46h355v-160h-335q-78 0 -149 -58.5t-71 -131.5v-150h555v-160h-327l-8 -23h55q108 0 108 -86q0 -42 -32 -65.5t-76 -23.5h-120z" />
    <glyph glyph-name="Egrave" unicode="&#xc8;" horiz-adv-x="760" 
d="M50 0v330q0 81 63.5 159.5t155 124.5t176.5 46h255v-160h-235q-28 0 -56.5 -9t-49 -21t-36.5 -24.5t-25 -21.5l-8 -9h260v-160h-305v-95h505v-160h-700zM572 700h-160l-185 145h195z" />
    <glyph glyph-name="Eacute" unicode="&#xc9;" horiz-adv-x="760" 
d="M227 700l150 145h195l-185 -145h-160zM50 0v330q0 81 63.5 159.5t155 124.5t176.5 46h255v-160h-235q-28 0 -56.5 -9t-49 -21t-36.5 -24.5t-25 -21.5l-8 -9h260v-160h-305v-95h505v-160h-700z" />
    <glyph glyph-name="Ecircumflex" unicode="&#xca;" horiz-adv-x="760" 
d="M380 855q45 0 75 -30l140 -125h-155l-60 65l-60 -65h-155l140 125q30 30 75 30zM50 0v330q0 81 63.5 159.5t155 124.5t176.5 46h255v-160h-235q-28 0 -56.5 -9t-49 -21t-36.5 -24.5t-25 -21.5l-8 -9h260v-160h-305v-95h505v-160h-700z" />
    <glyph glyph-name="Edieresis" unicode="&#xcb;" horiz-adv-x="760" 
d="M205 700v120h120v-120h-120zM435 700v120h120v-120h-120zM50 0v330q0 81 63.5 159.5t155 124.5t176.5 46h255v-160h-235q-28 0 -56.5 -9t-49 -21t-36.5 -24.5t-25 -21.5l-8 -9h260v-160h-305v-95h505v-160h-700z" />
    <glyph glyph-name="Igrave" unicode="&#xcc;" horiz-adv-x="295" 
d="M245 700h-160l-185 145h195zM245 660v-660h-195v660h195z" />
    <glyph glyph-name="Iacute" unicode="&#xcd;" horiz-adv-x="295" 
d="M50 700l150 145h195l-185 -145h-160zM245 660v-660h-195v660h195z" />
    <glyph glyph-name="Icircumflex" unicode="&#xce;" horiz-adv-x="295" 
d="M148 855q45 0 75 -30l140 -125h-155l-60 65l-60 -65h-155l140 125q30 30 75 30zM245 660v-660h-195v660h195z" />
    <glyph glyph-name="Idieresis" unicode="&#xcf;" horiz-adv-x="450" 
d="M50 700v120h120v-120h-120zM280 700v120h120v-120h-120zM322 660v-660h-195v660h195z" />
    <glyph glyph-name="Eth" unicode="&#xd0;" horiz-adv-x="905" 
d="M315 160h205q76 0 118 38t42 112q0 77 -48.5 133.5t-121.5 56.5h-195v-105h165v-120h-165v-115zM120 275h-90v120h90v265h410q129 0 237 -102t108 -228q0 -105 -49 -182t-123.5 -112.5t-162.5 -35.5h-420v275z" />
    <glyph glyph-name="Ntilde" unicode="&#xd1;" horiz-adv-x="850" 
d="M509 697q-7 0 -14 3l-139 49h-11q-2 0 -14 -2l-96 -37v105l85 33q14 4 20 4q7 0 13 -3l140 -48q4 -1 11 -1q8 0 13 2l96 37v-105l-84 -33q-16 -4 -20 -4zM245 500v-500h-195v660h195q93 -24 188 -88q46 -31 89 -69t63 -61l20 -22v240h195v-660h-195v160q-60 96 -174 204
q-50 47 -96.5 81t-68.5 45z" />
    <glyph glyph-name="Ograve" unicode="&#xd2;" horiz-adv-x="865" 
d="M580 700h-160l-185 145h195zM225 310q0 -74 42 -112t118 -38h95q76 0 118 38t42 112v40q0 74 -42 112t-118 38h-95q-76 0 -118 -38t-42 -112v-40zM835 290q0 -124 -101.5 -207t-233.5 -83h-135q-132 0 -233.5 83t-101.5 207v80q0 124 101.5 207t233.5 83h135
q132 0 233.5 -83t101.5 -207v-80z" />
    <glyph glyph-name="Oacute" unicode="&#xd3;" horiz-adv-x="865" 
d="M280 700l150 145h195l-185 -145h-160zM225 310q0 -74 42 -112t118 -38h95q76 0 118 38t42 112v40q0 74 -42 112t-118 38h-95q-76 0 -118 -38t-42 -112v-40zM835 290q0 -124 -101.5 -207t-233.5 -83h-135q-132 0 -233.5 83t-101.5 207v80q0 124 101.5 207t233.5 83h135
q132 0 233.5 -83t101.5 -207v-80z" />
    <glyph glyph-name="Ocircumflex" unicode="&#xd4;" horiz-adv-x="865" 
d="M452 855q45 0 75 -30l140 -125h-155l-60 65l-60 -65h-155l140 125q30 30 75 30zM225 310q0 -74 42 -112t118 -38h95q76 0 118 38t42 112v40q0 74 -42 112t-118 38h-95q-76 0 -118 -38t-42 -112v-40zM835 290q0 -124 -101.5 -207t-233.5 -83h-135q-132 0 -233.5 83
t-101.5 207v80q0 124 101.5 207t233.5 83h135q132 0 233.5 -83t101.5 -207v-80z" />
    <glyph glyph-name="Otilde" unicode="&#xd5;" horiz-adv-x="865" 
d="M517 697q-7 0 -14 3l-139 49h-11q-2 0 -14 -2l-96 -37v105l85 33q14 4 20 4q7 0 13 -3l140 -48q4 -1 11 -1q8 0 13 2l96 37v-105l-84 -33q-16 -4 -20 -4zM225 310q0 -74 42 -112t118 -38h95q76 0 118 38t42 112v40q0 74 -42 112t-118 38h-95q-76 0 -118 -38t-42 -112v-40
zM835 290q0 -124 -101.5 -207t-233.5 -83h-135q-132 0 -233.5 83t-101.5 207v80q0 124 101.5 207t233.5 83h135q132 0 233.5 -83t101.5 -207v-80z" />
    <glyph glyph-name="Odieresis" unicode="&#xd6;" horiz-adv-x="865" 
d="M257 700v120h120v-120h-120zM487 700v120h120v-120h-120zM225 310q0 -74 42 -112t118 -38h95q76 0 118 38t42 112v40q0 74 -42 112t-118 38h-95q-76 0 -118 -38t-42 -112v-40zM835 290q0 -124 -101.5 -207t-233.5 -83h-135q-132 0 -233.5 83t-101.5 207v80
q0 124 101.5 207t233.5 83h135q132 0 233.5 -83t101.5 -207v-80z" />
    <glyph glyph-name="multiply" unicode="&#xd7;" horiz-adv-x="428" 
d="M285 330l93 -92l-71 -71l-93 93l-93 -94l-71 71l94 93l-94 94l71 70l93 -93l93 93l71 -71z" />
    <glyph glyph-name="Oslash" unicode="&#xd8;" horiz-adv-x="865" 
d="M835 290q0 -124 -101.5 -207t-233.5 -83h-135q-63 0 -121 20l-19 -20h-195l88 95q-88 81 -88 195v80q0 124 101.5 207t233.5 83h135q63 0 121 -20l19 20h195l-88 -95q88 -81 88 -195v-80zM242 230l250 270h-12h-95q-76 0 -118 -38t-42 -112v-40q0 -46 17 -80zM373 160h12
h95q76 0 118 38t42 112v40q0 46 -17 80z" />
    <glyph glyph-name="Ugrave" unicode="&#xd9;" horiz-adv-x="855" 
d="M50 300v370h195v-350q0 -74 42 -112t118 -38h45q76 0 118 38t42 112v350h195v-370q0 -124 -101.5 -207t-233.5 -83h-85q-133 0 -234 82.5t-101 207.5zM600 700h-160l-185 145h195z" />
    <glyph glyph-name="Uacute" unicode="&#xda;" horiz-adv-x="855" 
d="M50 300v370h195v-350q0 -74 42 -112t118 -38h45q76 0 118 38t42 112v350h195v-370q0 -124 -101.5 -207t-233.5 -83h-85q-133 0 -234 82.5t-101 207.5zM255 700l150 145h195l-185 -145h-160z" />
    <glyph glyph-name="Ucircumflex" unicode="&#xdb;" horiz-adv-x="855" 
d="M50 290v370h195v-350q0 -74 42 -112t118 -38h45q76 0 118 38t42 112v350h195v-370q0 -124 -101.5 -207t-233.5 -83h-85q-133 0 -234 82.5t-101 207.5zM427 855q45 0 75 -30l140 -125h-155l-60 65l-60 -65h-155l140 125q30 30 75 30z" />
    <glyph glyph-name="Udieresis" unicode="&#xdc;" horiz-adv-x="855" 
d="M50 290v370h195v-350q0 -74 42 -112t118 -38h45q76 0 118 38t42 112v350h195v-370q0 -124 -101.5 -207t-233.5 -83h-85q-133 0 -234 82.5t-101 207.5zM252 700v120h120v-120h-120zM482 700v120h120v-120h-120z" />
    <glyph glyph-name="Yacute" unicode="&#xdd;" horiz-adv-x="810" 
d="M503 160v-160h-195v160q0 80 -49 161.5t-113.5 130t-115.5 48.5h-20v160h90q41 0 87 -26t83.5 -62.5t68.5 -73t49 -62.5l17 -26q5 10 15.5 27t43 60t66 76t83 60t97.5 27h90v-160h-20q-37 0 -85.5 -29.5t-90.5 -76t-71.5 -110t-29.5 -124.5zM234 700l150 145h195
l-185 -145h-160z" />
    <glyph glyph-name="Thorn" unicode="&#xde;" horiz-adv-x="810" 
d="M450 88h-150q-23 0 -39 -12.5t-16 -34.5v-41h-195v660h195v-87h205q330 0 330 -242q0 -123 -78.5 -183t-251.5 -60zM245 413v-185q25 20 55 20h184q101 0 101 83q0 82 -101 82h-239z" />
    <glyph glyph-name="germandbls" unicode="&#xdf;" horiz-adv-x="890" 
d="M470 458q0 21 -17.5 31.5t-42.5 10.5h-165v-500h-195v660h380q121 0 178 -47.5t57 -127.5q0 -62 7 -82.5t30 -20.5h13q76 0 110.5 -54t34.5 -130q0 -79 -58.5 -138.5t-151.5 -59.5h-323v160h283q25 0 40 12.5t15 35.5q0 20 -17 33.5t-38 13.5h-20q-54 0 -87 35t-33 84v84
z" />
    <glyph glyph-name="agrave" unicode="&#xe0;" 
d="M484 525h-160l-185 145h195zM680 485v-485h-320q-330 0 -330 242q0 123 78.5 183t251.5 60h320zM485 140v185h-159q-101 0 -101 -82q0 -83 101 -83h104q13 0 27 -5t21 -10z" />
    <glyph glyph-name="aacute" unicode="&#xe1;" 
d="M198 525l150 145h195l-185 -145h-160zM680 485v-485h-320q-330 0 -330 242q0 123 78.5 183t251.5 60h320zM485 140v185h-159q-101 0 -101 -82q0 -83 101 -83h104q13 0 27 -5t21 -10z" />
    <glyph glyph-name="acircumflex" unicode="&#xe2;" 
d="M378 680q45 0 75 -30l140 -125h-155l-60 65l-60 -65h-155l140 125q30 30 75 30zM680 485v-485h-320q-330 0 -330 242q0 123 78.5 183t251.5 60h320zM485 140v185h-159q-101 0 -101 -82q0 -83 101 -83h104q13 0 27 -5t21 -10z" />
    <glyph glyph-name="atilde" unicode="&#xe3;" 
d="M484 545q-6 0 -14 3l-139 49h-11q-2 0 -14 -2l-96 -37v105l85 33q14 4 20 4q7 0 13 -3l140 -48q4 -1 11 -1q8 0 13 2l96 37v-105l-84 -33q-16 -4 -20 -4zM680 485v-485h-320q-330 0 -330 242q0 123 78.5 183t251.5 60h320zM485 140v185h-159q-101 0 -101 -82
q0 -83 101 -83h104q13 0 27 -5t21 -10z" />
    <glyph glyph-name="adieresis" unicode="&#xe4;" 
d="M190 525v120h120v-120h-120zM420 525v120h120v-120h-120zM680 485v-485h-320q-330 0 -330 242q0 123 78.5 183t251.5 60h320zM485 140v185h-159q-101 0 -101 -82q0 -83 101 -83h104q13 0 27 -5t21 -10z" />
    <glyph glyph-name="aring" unicode="&#xe5;" 
d="M376 615q0 -48 51 -48h1q52 0 52 48v13q0 48 -52 48h-1q-51 0 -51 -48v-13zM542 608q0 -39 -32.5 -65.5t-74.5 -26.5h-15q-42 0 -74.5 26.5t-32.5 65.5v26q0 40 32.5 66.5t74.5 26.5h15q42 0 74.5 -26.5t32.5 -66.5v-26zM680 485v-485h-320q-330 0 -330 242
q0 123 78.5 183t251.5 60h320zM485 140v185h-159q-101 0 -101 -82q0 -83 101 -83h104q13 0 27 -5t21 -10z" />
    <glyph glyph-name="ae" unicode="&#xe6;" horiz-adv-x="1145" 
d="M810 195l30 130h-59q-101 0 -101 -83q0 -82 101 -82h354v-160h-320q-77 0 -135 12v-12h-320q-330 0 -330 242q0 123 78.5 183t251.5 60h320v-13q56 13 135 13h240l-70 -290h-175zM485 243v82h-159q-101 0 -101 -82q0 -83 101 -83h104q13 0 27 -5t21 -10l7 -5v103z" />
    <glyph glyph-name="ccedilla" unicode="&#xe7;" horiz-adv-x="740" 
d="M375 -126h67q20 0 20 17q0 16 -20 16h-164l42 93h-270v155q0 81 63.5 159.5t155 124.5t176.5 46h245v-160h-225q-84 0 -152 -55.5t-68 -99.5v-10h445v-160h-272l-8 -23h55q108 0 108 -86q0 -42 -32 -65.5t-76 -23.5h-120z" />
    <glyph glyph-name="egrave" unicode="&#xe8;" horiz-adv-x="690" 
d="M355 194l30 131h-59q-101 0 -101 -83q0 -82 101 -82h354v-160h-320q-173 0 -251.5 60t-78.5 183q0 242 330 242h240l-70 -290zM560 525h-160l-185 145h195z" />
    <glyph glyph-name="eacute" unicode="&#xe9;" horiz-adv-x="690" 
d="M355 194l30 131h-59q-101 0 -101 -83q0 -82 101 -82h354v-160h-320q-173 0 -251.5 60t-78.5 183q0 242 330 242h240l-70 -290zM275 525l150 145h195l-185 -145h-160z" />
    <glyph glyph-name="ecircumflex" unicode="&#xea;" horiz-adv-x="690" 
d="M390 680q45 0 75 -30l140 -125h-155l-60 65l-60 -65h-155l140 125q30 30 75 30zM355 195l30 130h-59q-101 0 -101 -83q0 -82 101 -82h354v-160h-320q-173 0 -251.5 60t-78.5 183q0 242 330 242h240l-70 -290h-175z" />
    <glyph glyph-name="edieresis" unicode="&#xeb;" horiz-adv-x="690" 
d="M250 525v120h120v-120h-120zM480 525v120h120v-120h-120zM355 194l30 131h-59q-101 0 -101 -83q0 -82 101 -82h354v-160h-320q-173 0 -251.5 60t-78.5 183q0 242 330 242h240l-70 -290z" />
    <glyph glyph-name="igrave" unicode="&#xec;" horiz-adv-x="295" 
d="M245 525h-160l-185 145h195zM50 0v485h195v-485h-195z" />
    <glyph glyph-name="iacute" unicode="&#xed;" horiz-adv-x="295" 
d="M50 525l150 145h195l-185 -145h-160zM50 0v485h195v-485h-195z" />
    <glyph glyph-name="icircumflex" unicode="&#xee;" horiz-adv-x="530" 
d="M265 680q45 0 75 -30l140 -125h-155l-60 65l-60 -65h-155l140 125q30 30 75 30zM168 0v485h194v-485h-194z" />
    <glyph glyph-name="idieresis" unicode="&#xef;" horiz-adv-x="450" 
d="M50 525v120h120v-120h-120zM280 525v120h120v-120h-120zM128 0v485h194v-485h-194z" />
    <glyph glyph-name="eth" unicode="&#xf0;" horiz-adv-x="710" 
d="M326 0q-132 0 -214 63.5t-82 179.5q0 111 83 176.5t213 65.5h69l-53 47l-61 -15l-81 78l64 16l-60 59h227l15 -15l60 15l81 -76l-64 -16l48 -54q109 -115 109 -248q0 -118 -73.5 -197t-222.5 -79h-58zM326 325q-101 0 -101 -82q0 -83 101 -83h58q101 0 101 83
q0 82 -101 82h-58z" />
    <glyph glyph-name="ntilde" unicode="&#xf1;" 
d="M50 0v485h355q128 0 211.5 -81.5t83.5 -208.5v-195h-195v175q0 73 -33 111.5t-87 38.5h-140v-325h-195zM442 545q-6 0 -14 3l-139 49h-11q-2 0 -14 -2l-96 -37v105l85 33q14 4 20 4q7 0 13 -3l140 -48q4 -1 11 -1q8 0 13 2l96 37v-105l-84 -33q-16 -4 -20 -4z" />
    <glyph glyph-name="ograve" unicode="&#xf2;" horiz-adv-x="710" 
d="M326 0q-132 0 -214 63.5t-82 179.5q0 111 83 176.5t213 65.5h58q130 0 213 -65.5t83 -176.5q0 -116 -82 -179.5t-214 -63.5h-58zM326 325q-101 0 -101 -82q0 -83 101 -83h58q101 0 101 83q0 82 -101 82h-58zM530 525h-160l-185 145h195z" />
    <glyph glyph-name="oacute" unicode="&#xf3;" horiz-adv-x="710" 
d="M384 0h-58q-132 0 -214 63.5t-82 179.5q0 111 83 176.5t213 65.5h58q130 0 213 -65.5t83 -176.5q0 -116 -82 -179.5t-214 -63.5zM384 325h-58q-101 0 -101 -82q0 -83 101 -83h58q101 0 101 83q0 82 -101 82zM180 525l150 145h195l-185 -145h-160z" />
    <glyph glyph-name="ocircumflex" unicode="&#xf4;" horiz-adv-x="710" 
d="M352 680q45 0 75 -30l140 -125h-155l-60 65l-60 -65h-155l140 125q30 30 75 30zM326 0q-132 0 -214 63.5t-82 179.5q0 110 83 176t213 66h58q130 0 213 -66t83 -176q0 -116 -82 -179.5t-214 -63.5h-58zM326 325q-101 0 -101 -82q0 -83 101 -83h58q101 0 101 83
q0 82 -101 82h-58z" />
    <glyph glyph-name="otilde" unicode="&#xf5;" horiz-adv-x="710" 
d="M442 545q-6 0 -14 3l-139 49h-11q-2 0 -14 -2l-96 -37v105l85 33q14 4 20 4q7 0 13 -3l140 -48q4 -1 11 -1q8 0 13 2l96 37v-105l-84 -33q-16 -4 -20 -4zM326 0q-132 0 -214 63.5t-82 179.5q0 110 83 176t213 66h58q130 0 213 -66t83 -176q0 -116 -82 -179.5t-214 -63.5
h-58zM326 325q-101 0 -101 -82q0 -83 101 -83h58q101 0 101 83q0 82 -101 82h-58z" />
    <glyph glyph-name="odieresis" unicode="&#xf6;" horiz-adv-x="710" 
d="M180 525v120h120v-120h-120zM410 525v120h120v-120h-120zM326 0q-132 0 -214 63.5t-82 179.5q0 111 83 176.5t213 65.5h58q130 0 213 -65.5t83 -176.5q0 -116 -82 -179.5t-214 -63.5h-58zM326 325q-101 0 -101 -82q0 -83 101 -83h58q101 0 101 83q0 82 -101 82h-58z" />
    <glyph glyph-name="divide" unicode="&#xf7;" horiz-adv-x="561" 
d="M30 403h501v-120h-501v120zM183 435v150h195v-150h-195zM183 100v150h195v-150h-195z" />
    <glyph glyph-name="oslash" unicode="&#xf8;" horiz-adv-x="710" 
d="M326 325q-101 0 -101 -82q0 -14 4 -30l106 112h-9zM485 485h195l-71 -76q71 -65 71 -166q0 -116 -82 -179.5t-214 -63.5h-58q-50 0 -92 9l-9 -9h-195l69 74q-69 64 -69 169q0 111 83 176.5t213 65.5h58q51 0 92 -10zM375 160h9q101 0 101 83q0 18 -4 30z" />
    <glyph glyph-name="ugrave" unicode="&#xf9;" horiz-adv-x="710" 
d="M484 525h-160l-185 145h195zM30 290v195h195v-175q0 -73 33 -111.5t87 -38.5h20q54 0 87 38.5t33 111.5v175h195v-195q0 -127 -83.5 -208.5t-211.5 -81.5h-60q-128 0 -211.5 81.5t-83.5 208.5z" />
    <glyph glyph-name="uacute" unicode="&#xfa;" horiz-adv-x="710" 
d="M225 525l150 145h195l-185 -145h-160zM30 290v195h195v-175q0 -73 33 -111.5t87 -38.5h20q54 0 87 38.5t33 111.5v175h195v-195q0 -127 -83.5 -208.5t-211.5 -81.5h-60q-128 0 -211.5 81.5t-83.5 208.5z" />
    <glyph glyph-name="ucircumflex" unicode="&#xfb;" horiz-adv-x="710" 
d="M355 680q45 0 75 -30l140 -125h-155l-60 65l-60 -65h-155l140 125q30 30 75 30zM30 290v195h195v-175q0 -73 33 -111.5t87 -38.5h20q54 0 87 38.5t33 111.5v175h195v-195q0 -127 -83.5 -208.5t-211.5 -81.5h-60q-128 0 -211.5 81.5t-83.5 208.5z" />
    <glyph glyph-name="udieresis" unicode="&#xfc;" horiz-adv-x="710" 
d="M180 525v120h120v-120h-120zM410 525v120h120v-120h-120zM30 290v195h195v-175q0 -73 33 -111.5t87 -38.5h20q54 0 87 38.5t33 111.5v175h195v-195q0 -127 -83.5 -208.5t-211.5 -81.5h-60q-128 0 -211.5 81.5t-83.5 208.5z" />
    <glyph glyph-name="yacute" unicode="&#xfd;" horiz-adv-x="700" 
d="M251 33l12 23q-14 88 -79.5 178.5t-116.5 90.5h-22v160h74q40 0 80.5 -24.5t70 -59t53.5 -69.5t36 -60l12 -24q4 10 11.5 26t32.5 56.5t53.5 72t73.5 57t93 25.5h55v-160h-10q-43 0 -77.5 -38.5t-77.5 -118.5l-73 -132q-65 -121 -146 -165.5t-214 -44.5h-82v160h127
q79 0 114 47zM197 525l150 145h195l-185 -145h-160z" />
    <glyph glyph-name="thorn" unicode="&#xfe;" 
d="M370 485q173 0 251.5 -60t78.5 -183q0 -242 -330 -242h-125v-175h-195v835h195v-128q0 -22 16 -34.5t39 -12.5h70zM245 345v-185h159q101 0 101 82q0 83 -101 83h-104q-13 0 -27 5t-21 10z" />
    <glyph glyph-name="ydieresis" unicode="&#xff;" horiz-adv-x="700" 
d="M251 33l12 23q-14 88 -79.5 178.5t-116.5 90.5h-22v160h74q40 0 80.5 -24.5t70 -59t53.5 -69.5t36 -60l12 -24q4 10 11.5 26t32.5 56.5t53.5 72t73.5 57t93 25.5h55v-160h-10q-43 0 -77.5 -38.5t-77.5 -118.5l-73 -132q-65 -121 -146 -165.5t-214 -44.5h-82v160h127
q79 0 114 47zM195 525v120h120v-120h-120zM425 525v120h120v-120h-120z" />
    <glyph glyph-name="OE" unicode="&#x152;" horiz-adv-x="1153" 
d="M508 485q-34 15 -83 15h-40q-76 0 -118 -38t-42 -112v-40q0 -74 42 -111.5t118 -37.5h63v169q0 77 60 155zM645 601q102 59 198 59h250v-160h-230q-28 0 -56.5 -9t-48.5 -21t-36.5 -24.5t-25.5 -21.5l-8 -9h255v-160h-300v-95h500v-160h-778q-132 0 -233.5 83t-101.5 207
v80q0 124 101.5 207t233.5 83h80q110 0 200 -59z" />
    <glyph glyph-name="oe" unicode="&#x153;" horiz-adv-x="1145" 
d="M326 325q-101 0 -101 -82q0 -83 101 -83h58q101 0 101 83q0 82 -101 82h-58zM326 0q-132 0 -214 63.5t-82 179.5q0 111 83 176.5t213 65.5h58q116 0 195 -53q83 53 236 53h240l-70 -290h-175l30 130h-59q-101 0 -101 -83q0 -82 101 -82h354v-160h-320q-156 0 -236 50
q-77 -50 -195 -50h-58z" />
    <glyph glyph-name="endash" unicode="&#x2013;" horiz-adv-x="785" 
d="M755 270h-725v120h725v-120z" />
    <glyph glyph-name="emdash" unicode="&#x2014;" horiz-adv-x="1160" 
d="M1130 270h-1100v120h1100v-120z" />
    <glyph glyph-name="quoteright" unicode="&#x2019;" horiz-adv-x="305" 
d="M30 450l50 250h195l-85 -250h-160z" />
    <glyph glyph-name="quotedblleft" unicode="&#x201c;" horiz-adv-x="590" 
d="M560 450h-160l-85 250h195zM275 450h-160l-85 250h195z" />
    <glyph glyph-name="quotedblright" unicode="&#x201d;" horiz-adv-x="590" 
d="M30 450l50 250h195l-85 -250h-160zM315 450l50 250h195l-85 -250h-160z" />
    <glyph glyph-name="bullet" unicode="&#x2022;" horiz-adv-x="425" 
d="M50 327v23q0 73 42 111.5t118 38.5h5q76 0 118 -38.5t42 -111.5v-23q0 -74 -42 -112t-118 -38h-5q-76 0 -118 38t-42 112z" />
    <glyph glyph-name="Euro" unicode="&#x20ac;" horiz-adv-x="820" 
d="M732 160v-160h-632v235h-68l29 80h39v15q0 10 1 15h-71l29 80h64q45 96 156 165.5t216 69.5h295l-58 -160h-217q-43 0 -88 -20.5t-79 -54.5h358l-30 -80h-376q-3 -10 -5 -30h368l-28 -80h-340v-75h437z" />
    <glyph glyph-name="trademark" unicode="&#x2122;" horiz-adv-x="1030" 
d="M796 415h-87q-7 36 -53 87q-22 24 -41.5 41.5t-28.5 22.5l-8 6v-237h-98v330h75q22 0 48 -12.5t48 -30.5t40 -36.5t29 -31.5l10 -12q4 5 10.5 13.5t26.5 29.5t40 37t47 29.5t51 13.5h75v-330h-98v239q-30 -22 -50 -42q-13 -13 -26 -29.5t-20 -26.5l-6 -10h-1
q6 -14 10.5 -26.5t5.5 -18.5zM278 528v-193h-98v193q0 15 3 29.5t6 20.5l3 7h-162v80h425v-80h-140q-37 0 -37 -57z" />
    <glyph glyph-name="NULL" horiz-adv-x="0" 
 />
    </font>
</defs>
</svg>
